# xmcd CD database file
#
# Track frame offsets:
#	150
#	14150
#	27956
#	39925
#	53421
#	67472
#	94159
#	107047
#	120890
#	136364
#	147899
#	176865
#	190076
#	204147
#	218051
#	232171
#	247423
#	261147
#
# Disc length: 3667 seconds
#
# Revision: 0
# Processed by: cddbd v1.5.2PL0 Copyright (c) Steve Scherf et al.
# Submitted via: CDex 1.51
#
DISCID=0b0e5112
DTITLE=Sampler - 18 Classic Blues Songs From The 1920's Vol.8
DYEAR=2010
DGENRE=Blues
TTITLE0=Sissy Man Blues - Kokomo Arnold
TTITLE1=Pea Vine Blues - Charley Patton
TTITLE2=Billy Lyons And Stack O`Lee - Furry Lewis
TTITLE3=Rabbit Foot Blues - Blind Lemon Jefferson
TTITLE4=Labor Blues - Tom Dickson
TTITLE5=Dentist Chair Blues Part. 1&2 - Hattie McDaniel and Papa Charlie Jackson
TTITLE6=Cherry Ball Blues - Skip James
TTITLE7=Hey ! Lawdy Mama - The France Blues - Papa Harvey Hull and Long Cleve Reed
TTITLE8=I`ll Be Gone, Long Gone - Mississippi Sheiks
TTITLE9=Black Cat Hoot Owl Blues - Ma Rainey
TTITLE10=Ko Ko Mo Blues Part. 1&2 - Jabo Williams
TTITLE11=Will The Coffin Be Your Santa Claus ? - Reverend J.M.Gates
TTITLE12=Tom Rushen Blues - Charley Patton
TTITLE13=Cannon Ball Blues - Furry Lewis
TTITLE14=Dry Land Blues - Furry Lewis
TTITLE15=Lonesome Home Blues - Tommy Johnson
TTITLE16=Save Your Money - Let These Women Go - Rabbits Foott Williams
TTITLE17=Mistreatin ' Mama - Rabbits Foot Williams
EXTD=YEAR: 2010
EXTT0=
EXTT1=
EXTT2=
EXTT3=
EXTT4=
EXTT5=
EXTT6=
EXTT7=
EXTT8=
EXTT9=
EXTT10=
EXTT11=
EXTT12=
EXTT13=
EXTT14=
EXTT15=
EXTT16=
EXTT17=
PLAYORDER=
